<svg width="500" height="500" viewBox="0 0 500 500" fill="none" xmlns="http://www.w3.org/2000/svg">
<rect x="7.5" y="7.5" width="485" height="485" fill="white"/>
<rect x="7.5" y="7.5" width="485" height="485" stroke="#767676" stroke-width="15"/>
<path d="M111.51 286V146H138.31L197.91 244.8H183.71L242.31 146H268.91L269.31 286H238.91L238.71 192.6H244.31L197.51 271.2H182.91L135.11 192.6H141.91V286H111.51ZM352.326 287.6C340.726 287.6 330.392 285.267 321.326 280.6C312.259 275.8 305.126 269.2 299.926 260.8C294.859 252.4 292.326 242.867 292.326 232.2C292.326 221.4 294.859 211.867 299.926 203.6C305.126 195.2 312.259 188.667 321.326 184C330.392 179.2 340.726 176.8 352.326 176.8C363.659 176.8 373.526 179.2 381.926 184C390.326 188.667 396.526 195.4 400.526 204.2L376.326 217.2C373.526 212.133 369.992 208.4 365.726 206C361.592 203.6 357.059 202.4 352.126 202.4C346.792 202.4 341.992 203.6 337.726 206C333.459 208.4 330.059 211.8 327.526 216.2C325.126 220.6 323.926 225.933 323.926 232.2C323.926 238.467 325.126 243.8 327.526 248.2C330.059 252.6 333.459 256 337.726 258.4C341.992 260.8 346.792 262 352.126 262C357.059 262 361.592 260.867 365.726 258.6C369.992 256.2 373.526 252.4 376.326 247.2L400.526 260.4C396.526 269.067 390.326 275.8 381.926 280.6C373.526 285.267 363.659 287.6 352.326 287.6Z" fill="#767676"/>
<path d="M31.7608 62V57.485L43.3708 46.52C44.2881 45.6887 44.9618 44.9433 45.3918 44.284C45.8218 43.6247 46.1085 43.0227 46.2518 42.478C46.4238 41.9333 46.5098 41.4317 46.5098 40.973C46.5098 39.769 46.0941 38.8517 45.2628 38.221C44.4601 37.5617 43.2705 37.232 41.6938 37.232C40.4325 37.232 39.2571 37.4757 38.1678 37.963C37.1071 38.4503 36.2041 39.21 35.4588 40.242L30.3848 36.974C31.5315 35.254 33.1368 33.8923 35.2008 32.889C37.2648 31.8857 39.6441 31.384 42.3388 31.384C44.5748 31.384 46.5241 31.7567 48.1868 32.502C49.8781 33.2187 51.1825 34.2363 52.0998 35.555C53.0458 36.8737 53.5188 38.4503 53.5188 40.285C53.5188 41.2597 53.3898 42.2343 53.1318 43.209C52.9025 44.155 52.4151 45.1583 51.6698 46.219C50.9531 47.2797 49.8925 48.4693 48.4878 49.788L38.8558 58.861L37.5228 56.324H54.5078V62H31.7608ZM70.2821 62.516C67.8167 62.516 65.6094 61.914 63.6601 60.71C61.7107 59.4773 60.1771 57.7 59.0591 55.378C57.9411 53.056 57.3821 50.2467 57.3821 46.95C57.3821 43.6533 57.9411 40.844 59.0591 38.522C60.1771 36.2 61.7107 34.437 63.6601 33.233C65.6094 32.0003 67.8167 31.384 70.2821 31.384C72.7761 31.384 74.9834 32.0003 76.9041 33.233C78.8534 34.437 80.3871 36.2 81.5051 38.522C82.6231 40.844 83.1821 43.6533 83.1821 46.95C83.1821 50.2467 82.6231 53.056 81.5051 55.378C80.3871 57.7 78.8534 59.4773 76.9041 60.71C74.9834 61.914 72.7761 62.516 70.2821 62.516ZM70.2821 56.625C71.4574 56.625 72.4751 56.2953 73.3351 55.636C74.2237 54.9767 74.9117 53.9303 75.3991 52.497C75.9151 51.0637 76.1731 49.2147 76.1731 46.95C76.1731 44.6853 75.9151 42.8363 75.3991 41.403C74.9117 39.9697 74.2237 38.9233 73.3351 38.264C72.4751 37.6047 71.4574 37.275 70.2821 37.275C69.1354 37.275 68.1177 37.6047 67.2291 38.264C66.3691 38.9233 65.6811 39.9697 65.1651 41.403C64.6777 42.8363 64.4341 44.6853 64.4341 46.95C64.4341 49.2147 64.6777 51.0637 65.1651 52.497C65.6811 53.9303 66.3691 54.9767 67.2291 55.636C68.1177 56.2953 69.1354 56.625 70.2821 56.625ZM86.1407 62V57.485L97.7507 46.52C98.668 45.6887 99.3417 44.9433 99.7717 44.284C100.202 43.6247 100.488 43.0227 100.632 42.478C100.804 41.9333 100.89 41.4317 100.89 40.973C100.89 39.769 100.474 38.8517 99.6427 38.221C98.84 37.5617 97.6503 37.232 96.0737 37.232C94.8123 37.232 93.637 37.4757 92.5477 37.963C91.487 38.4503 90.584 39.21 89.8387 40.242L84.7647 36.974C85.9113 35.254 87.5167 33.8923 89.5807 32.889C91.6447 31.8857 94.024 31.384 96.7187 31.384C98.9547 31.384 100.904 31.7567 102.567 32.502C104.258 33.2187 105.562 34.2363 106.48 35.555C107.426 36.8737 107.899 38.4503 107.899 40.285C107.899 41.2597 107.77 42.2343 107.512 43.209C107.282 44.155 106.795 45.1583 106.05 46.219C105.333 47.2797 104.272 48.4693 102.868 49.788L93.2357 58.861L91.9027 56.324H108.888V62H86.1407ZM121.996 62.516C119.903 62.516 117.825 62.2437 115.761 61.699C113.726 61.1257 111.977 60.323 110.515 59.291L113.267 53.959C114.414 54.7903 115.732 55.4497 117.223 55.937C118.742 56.4243 120.276 56.668 121.824 56.668C123.573 56.668 124.949 56.324 125.952 55.636C126.955 54.948 127.457 53.9877 127.457 52.755C127.457 51.981 127.256 51.293 126.855 50.691C126.454 50.089 125.737 49.6303 124.705 49.315C123.702 48.9997 122.283 48.842 120.448 48.842H112.751L114.299 31.9H132.66V37.49H116.793L120.405 34.308L119.33 46.391L115.718 43.209H122.082C125.063 43.209 127.457 43.6247 129.263 44.456C131.098 45.2587 132.431 46.3623 133.262 47.767C134.093 49.1717 134.509 50.7627 134.509 52.54C134.509 54.3173 134.065 55.9657 133.176 57.485C132.287 58.9757 130.911 60.194 129.048 61.14C127.213 62.0573 124.863 62.516 121.996 62.516Z" fill="#767676"/>
<path d="M151.885 305.6C154.445 305.6 156.705 306.1 158.665 307.1C160.665 308.1 162.225 309.64 163.345 311.72C164.465 313.76 165.025 316.4 165.025 319.64V338H157.525V320.6C157.525 317.76 156.905 315.64 155.665 314.24C154.425 312.84 152.645 312.14 150.325 312.14C148.685 312.14 147.225 312.5 145.945 313.22C144.705 313.94 143.725 315 143.005 316.4C142.325 317.8 141.985 319.58 141.985 321.74V338H134.485V320.6C134.485 317.76 133.865 315.64 132.625 314.24C131.385 312.84 129.605 312.14 127.285 312.14C125.645 312.14 124.185 312.5 122.905 313.22C121.665 313.94 120.685 315 119.965 316.4C119.285 317.8 118.945 319.58 118.945 321.74V338H111.445V305.96H118.585V314.48L117.325 311.96C118.405 309.88 119.965 308.3 122.005 307.22C124.085 306.14 126.445 305.6 129.085 305.6C132.085 305.6 134.685 306.34 136.885 307.82C139.125 309.3 140.605 311.54 141.325 314.54L138.385 313.52C139.425 311.12 141.145 309.2 143.545 307.76C145.945 306.32 148.725 305.6 151.885 305.6ZM189.728 338.42C186.168 338.42 183.048 337.72 180.368 336.32C177.728 334.88 175.668 332.92 174.188 330.44C172.748 327.96 172.028 325.14 172.028 321.98C172.028 318.78 172.728 315.96 174.128 313.52C175.568 311.04 177.528 309.1 180.008 307.7C182.528 306.3 185.388 305.6 188.588 305.6C191.708 305.6 194.488 306.28 196.928 307.64C199.368 309 201.288 310.92 202.688 313.4C204.088 315.88 204.788 318.8 204.788 322.16C204.788 322.48 204.768 322.84 204.728 323.24C204.728 323.64 204.708 324.02 204.668 324.38H177.968V319.4H200.708L197.768 320.96C197.808 319.12 197.428 317.5 196.628 316.1C195.828 314.7 194.728 313.6 193.328 312.8C191.968 312 190.388 311.6 188.588 311.6C186.748 311.6 185.128 312 183.728 312.8C182.368 313.6 181.288 314.72 180.488 316.16C179.728 317.56 179.348 319.22 179.348 321.14V322.34C179.348 324.26 179.788 325.96 180.668 327.44C181.548 328.92 182.788 330.06 184.388 330.86C185.988 331.66 187.828 332.06 189.908 332.06C191.708 332.06 193.328 331.78 194.768 331.22C196.208 330.66 197.488 329.78 198.608 328.58L202.628 333.2C201.188 334.88 199.368 336.18 197.168 337.1C195.008 337.98 192.528 338.42 189.728 338.42ZM225.552 338.42C222.472 338.42 219.692 337.74 217.212 336.38C214.772 334.98 212.852 333.06 211.452 330.62C210.052 328.18 209.352 325.3 209.352 321.98C209.352 318.66 210.052 315.78 211.452 313.34C212.852 310.9 214.772 309 217.212 307.64C219.692 306.28 222.472 305.6 225.552 305.6C228.232 305.6 230.632 306.2 232.752 307.4C234.872 308.56 236.552 310.34 237.792 312.74C239.032 315.14 239.652 318.22 239.652 321.98C239.652 325.7 239.052 328.78 237.852 331.22C236.652 333.62 234.992 335.42 232.872 336.62C230.752 337.82 228.312 338.42 225.552 338.42ZM226.452 332C228.252 332 229.852 331.6 231.252 330.8C232.692 330 233.832 328.84 234.672 327.32C235.552 325.8 235.992 324.02 235.992 321.98C235.992 319.9 235.552 318.12 234.672 316.64C233.832 315.12 232.692 313.96 231.252 313.16C229.852 312.36 228.252 311.96 226.452 311.96C224.652 311.96 223.032 312.36 221.592 313.16C220.192 313.96 219.052 315.12 218.172 316.64C217.332 318.12 216.912 319.9 216.912 321.98C216.912 324.02 217.332 325.8 218.172 327.32C219.052 328.84 220.192 330 221.592 330.8C223.032 331.6 224.652 332 226.452 332ZM236.172 338V330.44L236.472 321.92L235.872 313.4V293.48H243.312V338H236.172ZM253.184 338V305.96H260.684V338H253.184ZM256.964 300.68C255.564 300.68 254.404 300.24 253.484 299.36C252.604 298.48 252.164 297.42 252.164 296.18C252.164 294.9 252.604 293.84 253.484 293C254.404 292.12 255.564 291.68 256.964 291.68C258.364 291.68 259.504 292.1 260.384 292.94C261.304 293.74 261.764 294.76 261.764 296C261.764 297.32 261.324 298.44 260.444 299.36C259.564 300.24 258.404 300.68 256.964 300.68ZM285.227 338.42C281.867 338.42 278.867 337.72 276.227 336.32C273.627 334.88 271.587 332.92 270.107 330.44C268.627 327.96 267.887 325.14 267.887 321.98C267.887 318.78 268.627 315.96 270.107 313.52C271.587 311.04 273.627 309.1 276.227 307.7C278.867 306.3 281.867 305.6 285.227 305.6C288.347 305.6 291.087 306.24 293.447 307.52C295.847 308.76 297.667 310.6 298.907 313.04L293.147 316.4C292.187 314.88 291.007 313.76 289.607 313.04C288.247 312.32 286.767 311.96 285.167 311.96C283.327 311.96 281.667 312.36 280.187 313.16C278.707 313.96 277.547 315.12 276.707 316.64C275.867 318.12 275.447 319.9 275.447 321.98C275.447 324.06 275.867 325.86 276.707 327.38C277.547 328.86 278.707 330 280.187 330.8C281.667 331.6 283.327 332 285.167 332C286.767 332 288.247 331.64 289.607 330.92C291.007 330.2 292.187 329.08 293.147 327.56L298.907 330.92C297.667 333.32 295.847 335.18 293.447 336.5C291.087 337.78 288.347 338.42 285.227 338.42ZM319.322 338.42C316.042 338.42 313.122 337.72 310.562 336.32C308.002 334.88 305.982 332.92 304.502 330.44C303.022 327.96 302.282 325.14 302.282 321.98C302.282 318.78 303.022 315.96 304.502 313.52C305.982 311.04 308.002 309.1 310.562 307.7C313.122 306.3 316.042 305.6 319.322 305.6C322.642 305.6 325.582 306.3 328.142 307.7C330.742 309.1 332.762 311.02 334.202 313.46C335.682 315.9 336.422 318.74 336.422 321.98C336.422 325.14 335.682 327.96 334.202 330.44C332.762 332.92 330.742 334.88 328.142 336.32C325.582 337.72 322.642 338.42 319.322 338.42ZM319.322 332C321.162 332 322.802 331.6 324.242 330.8C325.682 330 326.802 328.84 327.602 327.32C328.442 325.8 328.862 324.02 328.862 321.98C328.862 319.9 328.442 318.12 327.602 316.64C326.802 315.12 325.682 313.96 324.242 313.16C322.802 312.36 321.182 311.96 319.382 311.96C317.542 311.96 315.902 312.36 314.462 313.16C313.062 313.96 311.942 315.12 311.102 316.64C310.262 318.12 309.842 319.9 309.842 321.98C309.842 324.02 310.262 325.8 311.102 327.32C311.942 328.84 313.062 330 314.462 330.8C315.902 331.6 317.522 332 319.322 332ZM343.594 338V305.96H350.734V314.78L349.894 312.2C350.854 310.04 352.354 308.4 354.394 307.28C356.474 306.16 359.054 305.6 362.134 305.6V312.74C361.814 312.66 361.514 312.62 361.234 312.62C360.954 312.58 360.674 312.56 360.394 312.56C357.554 312.56 355.294 313.4 353.614 315.08C351.934 316.72 351.094 319.18 351.094 322.46V338H343.594ZM381.763 338.42C378.683 338.42 375.903 337.74 373.423 336.38C370.983 334.98 369.063 333.06 367.663 330.62C366.263 328.18 365.563 325.3 365.563 321.98C365.563 318.66 366.263 315.78 367.663 313.34C369.063 310.9 370.983 309 373.423 307.64C375.903 306.28 378.683 305.6 381.763 305.6C384.443 305.6 386.843 306.2 388.963 307.4C391.083 308.56 392.763 310.34 394.003 312.74C395.243 315.14 395.863 318.22 395.863 321.98C395.863 325.7 395.263 328.78 394.063 331.22C392.863 333.62 391.203 335.42 389.083 336.62C386.963 337.82 384.523 338.42 381.763 338.42ZM382.663 332C384.463 332 386.063 331.6 387.463 330.8C388.903 330 390.043 328.84 390.883 327.32C391.763 325.8 392.203 324.02 392.203 321.98C392.203 319.9 391.763 318.12 390.883 316.64C390.043 315.12 388.903 313.96 387.463 313.16C386.063 312.36 384.463 311.96 382.663 311.96C380.863 311.96 379.243 312.36 377.803 313.16C376.403 313.96 375.263 315.12 374.383 316.64C373.543 318.12 373.123 319.9 373.123 321.98C373.123 324.02 373.543 325.8 374.383 327.32C375.263 328.84 376.403 330 377.803 330.8C379.243 331.6 380.863 332 382.663 332ZM392.383 338V330.44L392.683 321.92L392.083 313.4V293.48H399.523V338H392.383Z" fill="#767676"/>
<path d="M197.084 374.238V348.966H202.727V351.099H199.676V372.105H202.727V374.238H197.084ZM211.961 374.4C210.647 374.4 209.369 374.211 208.127 373.833C206.903 373.473 205.904 372.951 205.13 372.267L206.372 370.269C207.038 370.845 207.857 371.295 208.829 371.619C209.801 371.961 210.818 372.132 211.88 372.132C213.572 372.132 214.814 371.736 215.606 370.944C216.398 370.152 216.794 368.946 216.794 367.326V364.302L217.064 361.467L216.929 358.605V354.69H219.386V367.056C219.386 369.576 218.756 371.43 217.496 372.618C216.236 373.806 214.391 374.4 211.961 374.4ZM211.637 368.406C210.251 368.406 209.009 368.118 207.911 367.542C206.831 366.948 205.967 366.129 205.319 365.085C204.689 364.041 204.374 362.835 204.374 361.467C204.374 360.081 204.689 358.875 205.319 357.849C205.967 356.805 206.831 355.995 207.911 355.419C209.009 354.843 210.251 354.555 211.637 354.555C212.861 354.555 213.977 354.807 214.985 355.311C215.993 355.797 216.794 356.553 217.388 357.579C218 358.605 218.306 359.901 218.306 361.467C218.306 363.015 218 364.302 217.388 365.328C216.794 366.354 215.993 367.128 214.985 367.65C213.977 368.154 212.861 368.406 211.637 368.406ZM211.934 366.138C212.888 366.138 213.734 365.94 214.472 365.544C215.21 365.148 215.786 364.599 216.2 363.897C216.632 363.195 216.848 362.385 216.848 361.467C216.848 360.549 216.632 359.739 216.2 359.037C215.786 358.335 215.21 357.795 214.472 357.417C213.734 357.021 212.888 356.823 211.934 356.823C210.98 356.823 210.125 357.021 209.369 357.417C208.631 357.795 208.046 358.335 207.614 359.037C207.2 359.739 206.993 360.549 206.993 361.467C206.993 362.385 207.2 363.195 207.614 363.897C208.046 364.599 208.631 365.148 209.369 365.544C210.125 365.94 210.98 366.138 211.934 366.138ZM224.339 369V354.69H226.823V358.578L226.58 357.606C226.976 356.616 227.642 355.86 228.578 355.338C229.514 354.816 230.666 354.555 232.034 354.555V357.066C231.926 357.048 231.818 357.039 231.71 357.039C231.62 357.039 231.53 357.039 231.44 357.039C230.054 357.039 228.956 357.453 228.146 358.281C227.336 359.109 226.931 360.306 226.931 361.872V369H224.339ZM241.226 369.162C239.786 369.162 238.508 368.847 237.392 368.217C236.276 367.587 235.394 366.723 234.746 365.625C234.098 364.509 233.774 363.249 233.774 361.845C233.774 360.423 234.098 359.163 234.746 358.065C235.394 356.967 236.276 356.112 237.392 355.5C238.508 354.87 239.786 354.555 241.226 354.555C242.648 354.555 243.917 354.87 245.033 355.5C246.167 356.112 247.049 356.967 247.679 358.065C248.327 359.145 248.651 360.405 248.651 361.845C248.651 363.267 248.327 364.527 247.679 365.625C247.049 366.723 246.167 367.587 245.033 368.217C243.917 368.847 242.648 369.162 241.226 369.162ZM241.226 366.894C242.144 366.894 242.963 366.687 243.683 366.273C244.421 365.859 244.997 365.274 245.411 364.518C245.825 363.744 246.032 362.853 246.032 361.845C246.032 360.819 245.825 359.937 245.411 359.199C244.997 358.443 244.421 357.858 243.683 357.444C242.963 357.03 242.144 356.823 241.226 356.823C240.308 356.823 239.489 357.03 238.769 357.444C238.049 357.858 237.473 358.443 237.041 359.199C236.609 359.937 236.393 360.819 236.393 361.845C236.393 362.853 236.609 363.744 237.041 364.518C237.473 365.274 238.049 365.859 238.769 366.273C239.489 366.687 240.308 366.894 241.226 366.894ZM258.256 369.162C257.032 369.162 255.952 368.937 255.016 368.487C254.098 368.037 253.378 367.353 252.856 366.435C252.352 365.499 252.1 364.329 252.1 362.925V354.69H254.692V362.628C254.692 364.032 255.025 365.085 255.691 365.787C256.375 366.489 257.329 366.84 258.553 366.84C259.453 366.84 260.236 366.66 260.902 366.3C261.568 365.922 262.081 365.382 262.441 364.68C262.801 363.96 262.981 363.096 262.981 362.088V354.69H265.573V369H263.116V365.139L263.521 366.165C263.053 367.119 262.351 367.857 261.415 368.379C260.479 368.901 259.426 369.162 258.256 369.162ZM278.095 369.162C276.907 369.162 275.818 368.892 274.828 368.352C273.856 367.794 273.073 366.975 272.479 365.895C271.903 364.815 271.615 363.465 271.615 361.845C271.615 360.225 271.894 358.875 272.452 357.795C273.028 356.715 273.802 355.905 274.774 355.365C275.764 354.825 276.871 354.555 278.095 354.555C279.499 354.555 280.741 354.861 281.821 355.473C282.901 356.085 283.756 356.94 284.386 358.038C285.016 359.118 285.331 360.387 285.331 361.845C285.331 363.303 285.016 364.581 284.386 365.679C283.756 366.777 282.901 367.632 281.821 368.244C280.741 368.856 279.499 369.162 278.095 369.162ZM270.508 374.238V354.69H272.992V358.551L272.83 361.872L273.1 365.193V374.238H270.508ZM277.879 366.894C278.797 366.894 279.616 366.687 280.336 366.273C281.074 365.859 281.65 365.274 282.064 364.518C282.496 363.744 282.712 362.853 282.712 361.845C282.712 360.819 282.496 359.937 282.064 359.199C281.65 358.443 281.074 357.858 280.336 357.444C279.616 357.03 278.797 356.823 277.879 356.823C276.979 356.823 276.16 357.03 275.422 357.444C274.702 357.858 274.126 358.443 273.694 359.199C273.28 359.937 273.073 360.819 273.073 361.845C273.073 362.853 273.28 363.744 273.694 364.518C274.126 365.274 274.702 365.859 275.422 366.273C276.16 366.687 276.979 366.894 277.879 366.894ZM289.217 369.162C288.713 369.162 288.281 368.991 287.921 368.649C287.561 368.289 287.381 367.839 287.381 367.299C287.381 366.759 287.561 366.318 287.921 365.976C288.281 365.634 288.713 365.463 289.217 365.463C289.703 365.463 290.117 365.634 290.459 365.976C290.819 366.318 290.999 366.759 290.999 367.299C290.999 367.839 290.819 368.289 290.459 368.649C290.117 368.991 289.703 369.162 289.217 369.162ZM299.654 369.216C298.322 369.216 297.026 369.009 295.766 368.595C294.524 368.181 293.507 367.623 292.715 366.921L293.957 364.788C294.587 365.382 295.406 365.868 296.414 366.246C297.422 366.624 298.493 366.813 299.627 366.813C301.067 366.813 302.174 366.507 302.948 365.895C303.722 365.283 304.109 364.464 304.109 363.438C304.109 362.736 303.938 362.124 303.596 361.602C303.254 361.08 302.66 360.684 301.814 360.414C300.986 360.126 299.843 359.982 298.385 359.982H294.092L295.091 350.1H305.756V352.449H296.09L297.494 351.126L296.711 358.929L295.307 357.633H298.952C300.842 357.633 302.363 357.876 303.515 358.362C304.667 358.848 305.504 359.523 306.026 360.387C306.548 361.233 306.809 362.214 306.809 363.33C306.809 364.41 306.548 365.4 306.026 366.3C305.504 367.182 304.712 367.893 303.65 368.433C302.606 368.955 301.274 369.216 299.654 369.216ZM313.916 374.238H308.273V372.105H311.324V351.099H308.273V348.966H313.916V374.238Z" fill="#767676"/>
</svg>
